HIERARCHY
ROOT joint_Root
{
	OFFSET 0.0 0.0 0.0
	CHANNELS 6 Xposition Yposition Zposition Zrotation Xrotation Yrotation 
	JOINT Hips
	{
		OFFSET 4.5925 91.4895 -427.239
		CHANNELS 6 Xposition Yposition Zposition Zrotation Xrotation Yrotation 
		JOINT Spine
		{
			OFFSET 15.7357 0.0 0.0
			CHANNELS 6 Xposition Yposition Zposition Zrotation Xrotation Yrotation 
			JOINT Chest
			{
				OFFSET 8.98455 -0.406207 0.0
				CHANNELS 6 Xposition Yposition Zposition Zrotation Xrotation Yrotation 
				JOINT Neck
				{
					OFFSET 16.3773 0.0 0.0
					CHANNELS 6 Xposition Yposition Zposition Zrotation Xrotation Yrotation 
					JOINT Head
					{
						OFFSET 6.45672 0.0 0.0
						CHANNELS 6 Xposition Yposition Zposition Zrotation Xrotation Yrotation 
						End Site
						{
							OFFSET 0.0 0.0 0.0
						}
					}
				}
				JOINT Shoulder_L
				{
					OFFSET 12.9942 -0.242716 4.98039
					CHANNELS 6 Xposition Yposition Zposition Zrotation Xrotation Yrotation 
					JOINT UpperArm_L
					{
						OFFSET 5.34809 0.0 0.0
						CHANNELS 6 Xposition Yposition Zposition Zrotation Xrotation Yrotation 
						JOINT LowerArm_L
						{
							OFFSET 24.3286 1.87007e-05 0.0
							CHANNELS 6 Xposition Yposition Zposition Zrotation Xrotation Yrotation 
							JOINT Hand_L
							{
								OFFSET 22.2916 0.0 0.0
								CHANNELS 6 Xposition Yposition Zposition Zrotation Xrotation Yrotation 
								End Site
								{
									OFFSET 0.0 0.0 0.0
								}
							}
						}
					}
				}
				JOINT Shoulder_R
				{
					OFFSET 12.9945 -0.242716 -4.98039
					CHANNELS 6 Xposition Yposition Zposition Zrotation Xrotation Yrotation 
					JOINT UpperArm_R
					{
						OFFSET -5.34813 0.0 0.0
						CHANNELS 6 Xposition Yposition Zposition Zrotation Xrotation Yrotation 
						JOINT LowerArm_R
						{
							OFFSET -24.3289 0.000322201 0.0
							CHANNELS 6 Xposition Yposition Zposition Zrotation Xrotation Yrotation 
							JOINT Hand_R
							{
								OFFSET -22.2915 -0.000108084 0.0
								CHANNELS 6 Xposition Yposition Zposition Zrotation Xrotation Yrotation 
								End Site
								{
									OFFSET 0.0 0.0 0.0
								}
							}
						}
					}
				}
			}
		}
		JOINT UpperLeg_L
		{
			OFFSET -2.19248 -6.46944 0.0
			CHANNELS 6 Xposition Yposition Zposition Zrotation Xrotation Yrotation 
			JOINT LowerLeg_L
			{
				OFFSET 39.0811 0.0 -1.23785e-05
				CHANNELS 6 Xposition Yposition Zposition Zrotation Xrotation Yrotation 
				JOINT Foot_L
				{
					OFFSET 40.9854 0.0 -1.26872e-05
					CHANNELS 6 Xposition Yposition Zposition Zrotation Xrotation Yrotation 
					JOINT Toes_L
					{
						OFFSET 11.7543 0.0 0.0
						CHANNELS 6 Xposition Yposition Zposition Zrotation Xrotation Yrotation 
						End Site
						{
							OFFSET 0.0 0.0 0.0
						}
					}
				}
			}
		}
		JOINT UpperLeg_R
		{
			OFFSET -2.19251 6.46944 0.0
			CHANNELS 6 Xposition Yposition Zposition Zrotation Xrotation Yrotation 
			JOINT LowerLeg_R
			{
				OFFSET -39.0811 -0.00228153 -0.0401928
				CHANNELS 6 Xposition Yposition Zposition Zrotation Xrotation Yrotation 
				JOINT Foot_R
				{
					OFFSET -40.9854 0.0 0.0
					CHANNELS 6 Xposition Yposition Zposition Zrotation Xrotation Yrotation 
					JOINT Toes_R
					{
						OFFSET -11.7543 0.0 0.0
						CHANNELS 6 Xposition Yposition Zposition Zrotation Xrotation Yrotation 
						End Site
						{
							OFFSET 0.0 0.0 0.0
						}
					}
				}
			}
		}
	}
}
MOTION
Frames:	8
Frame Time:	0.0333333
0.000000 0.000000 0.000000 0.000000 0.000000 -0.000000 0.425418 82.135200 -1.780230 89.186800 -5.164660 13.371700 15.735700 0.000005 -0.000001 89.459200 78.582500 -89.555900 8.984550 -0.406207 -0.000000 15.067900 -0.218801 -0.164462 16.377300 -0.000001 -0.000001 -4.333140 -3.232220 1.851320 6.456720 -0.000001 -0.000000 -8.365190 -2.842520 2.683790 12.994200 -0.242716 4.980390 -91.140700 3.958390 -73.910900 5.348090 -0.000007 -0.000001 -66.949000 41.429100 -7.220640 24.328600 0.000019 0.000005 11.511300 39.004700 -17.931100 22.291600 -0.000001 0.000005 -6.679350 5.359210 -1.655770 12.994500 -0.242716 -4.980390 88.767600 8.534130 -81.751500 -5.348130 -0.000001 -0.000004 -58.228100 43.406200 -12.627700 -24.328900 0.000322 -0.000009 4.559960 21.574200 -12.240200 -22.291500 -0.000108 -0.000004 -24.252100 5.172240 3.483820 -2.192480 -6.469440 -0.000000 -175.041000 -10.083600 -13.263300 39.081100 -0.000007 -0.000012 -0.612770 0.318585 62.531000 40.985400 -0.000006 -0.000013 -0.765160 -0.418786 -85.713800 11.754300 -0.000000 0.000003 -0.000376 -0.003141 -16.693700 -2.192510 6.469440 -0.000001 176.625000 9.174280 167.217000 -39.081100 -0.002282 -0.040193 0.083897 -0.042071 62.469600 -40.985400 0.000008 0.000006 5.544300 2.162120 -85.928000 -11.754300 -0.000006 -0.000006 -0.616159 -0.758112 -16.821600
0.000000 0.000000 0.000000 0.000000 0.000000 -0.000000 0.371417 84.052800 -1.396750 89.371400 -4.317190 13.301400 15.735700 0.000005 -0.000001 89.206500 79.717200 -89.257500 8.984550 -0.406207 -0.000000 12.797700 -0.284275 -0.070171 16.377300 -0.000001 -0.000001 -2.060450 -3.310740 1.692500 6.456720 -0.000001 -0.000000 -6.536960 -2.650270 2.148710 12.994200 -0.242716 4.980390 -90.798100 2.749680 -73.808300 5.348090 -0.000007 -0.000001 -58.853800 34.206900 -18.721900 24.328600 0.000019 0.000005 8.955730 27.328100 -18.949000 22.291600 -0.000001 0.000005 -2.911670 5.341950 -1.136200 12.994500 -0.242716 -4.980390 88.984400 6.516220 -81.121200 -5.348130 -0.000001 -0.000004 -52.721100 36.187000 -23.297100 -24.328900 0.000322 -0.000009 3.399140 17.640500 -11.092500 -22.291500 -0.000108 -0.000004 -21.363700 5.027720 6.736360 -2.192480 -6.469440 -0.000000 -175.269000 -9.773090 -10.395100 39.081100 -0.000007 -0.000012 -0.532486 0.347060 56.906000 40.985400 -0.000006 -0.000013 -0.555770 0.046206 -83.073000 11.754300 -0.000000 0.000003 -0.000389 -0.003231 -16.696800 -2.192510 6.469440 -0.000001 176.150000 10.152800 170.262000 -39.081100 -0.002282 -0.040193 0.076550 -0.047670 56.974300 -40.985400 0.000008 0.000006 5.596860 2.705770 -83.402700 -11.754300 -0.000006 -0.000006 -0.593315 -0.729131 -16.980600
0.000000 0.000000 0.000000 0.000000 0.000000 -0.000000 0.371908 86.382500 -1.112080 89.697500 -3.939180 12.885100 15.735700 0.000005 -0.000001 89.486600 81.268900 -89.629500 8.984550 -0.406207 -0.000000 9.695400 -0.157916 -0.271998 16.377300 -0.000001 -0.000001 2.119770 -3.135770 1.777450 6.456720 -0.000001 -0.000000 -3.752960 -2.752920 2.027770 12.994200 -0.242716 4.980390 -90.435400 1.454200 -73.329100 5.348090 -0.000007 -0.000001 -50.166700 25.534400 -32.861900 24.328600 0.000019 0.000005 11.872200 27.308800 -24.616000 22.291600 -0.000001 0.000005 2.596360 5.336050 -0.962391 12.994500 -0.242716 -4.980390 89.232600 4.696440 -80.708600 -5.348130 -0.000001 -0.000004 -47.012500 26.636500 -35.267700 -24.328900 0.000322 -0.000009 3.903540 16.299400 -13.668400 -22.291500 -0.000108 -0.000004 -7.876250 5.199780 2.789850 -2.192480 -6.469440 -0.000000 -175.459000 -10.514000 -6.861040 39.081100 -0.000007 -0.000012 -0.403776 0.347352 49.296800 40.985400 -0.000006 -0.000013 -0.123817 1.064220 -79.405400 11.754300 -0.000000 0.000003 -0.000293 -0.002553 -16.672700 -2.192510 6.469440 -0.000001 175.281000 11.852100 173.648000 -39.081100 -0.002282 -0.040193 0.061785 -0.049469 49.798600 -40.985400 0.000008 0.000006 5.868250 4.558710 -79.707900 -11.754300 -0.000006 -0.000006 -0.630047 -0.772840 -17.325000
0.000000 0.000000 0.000000 0.000000 0.000000 -0.000000 0.384369 88.317000 -1.205860 89.936900 -3.836310 11.155300 15.735700 0.000005 -0.000001 89.888100 83.051000 -90.080500 8.984550 -0.406207 -0.000000 6.131980 -0.024329 -0.383071 16.377300 -0.000001 -0.000001 5.813830 -2.876070 1.763020 6.456720 -0.000001 -0.000000 -1.156490 -2.859020 1.722640 12.994200 -0.242716 4.980390 -89.775200 -0.754830 -73.413700 5.348090 -0.000007 -0.000001 -44.214300 14.001000 -46.202800 24.328600 0.000019 0.000005 17.528000 28.018600 -33.914400 22.291600 -0.000001 0.000005 7.434650 5.334340 -0.908408 12.994500 -0.242716 -4.980390 89.488700 3.024550 -80.400900 -5.348130 -0.000001 -0.000004 -43.319900 13.565800 -46.965800 -24.328900 0.000322 -0.000009 8.254230 19.054600 -23.957200 -22.291500 -0.000108 -0.000004 6.381110 5.361110 -1.639730 -2.192480 -6.469440 -0.000000 -175.743000 -11.857800 -5.167270 39.081100 -0.000007 -0.000012 -0.295710 0.326156 42.197800 40.985400 -0.000006 -0.000013 0.313985 2.354810 -75.714500 11.754300 -0.000000 0.000003 -0.000206 -0.001902 -16.649200 -2.192510 6.469440 -0.000001 174.807000 13.942500 175.150000 -39.081100 -0.002282 -0.040193 0.047908 -0.047623 43.147300 -40.985400 0.000008 0.000006 6.185510 6.902470 -76.124800 -11.754300 -0.000006 -0.000006 -0.630778 -0.772458 -17.589500
0.000000 0.000000 0.000000 0.000000 0.000000 -0.000000 0.395299 89.590700 -1.464940 89.774900 -3.786850 9.204390 15.735700 0.000005 -0.000001 90.429800 84.379100 -90.422800 8.984550 -0.406207 -0.000000 3.475440 0.083958 0.011435 16.377300 -0.000001 -0.000001 7.169100 -2.777480 1.424630 6.456720 -0.000001 -0.000000 0.033198 -2.707410 1.244560 12.994200 -0.242716 4.980390 -88.912800 -3.700320 -73.614800 5.348090 -0.000007 -0.000001 -40.030200 0.592708 -57.354800 24.328600 0.000019 0.000005 20.047400 21.604400 -44.747400 22.291600 -0.000001 0.000005 14.704200 5.357100 -1.587640 12.994500 -0.242716 -4.980390 89.945400 0.313617 -80.119900 -5.348130 -0.000001 -0.000004 -39.503600 0.007211 -58.728700 -24.328900 0.000322 -0.000009 7.944280 10.285700 -38.043100 -22.291500 -0.000108 -0.000004 16.893800 5.534100 -7.844580 -2.192480 -6.469440 -0.000000 -175.895000 -12.572800 -4.794340 39.081100 -0.000007 -0.000012 -0.227568 0.301215 37.071400 40.985400 -0.000006 -0.000013 0.460926 3.090370 -72.923800 11.754300 -0.000000 0.000003 -0.000154 -0.001487 -16.634000 -2.192510 6.469440 -0.000001 175.082000 15.796100 175.653000 -39.081100 -0.002282 -0.040193 0.037729 -0.044252 37.897000 -40.985400 0.000008 0.000006 6.292910 8.818340 -73.539300 -11.754300 -0.000006 -0.000006 -0.423911 -0.523639 -17.610900
0.000000 0.000000 0.000000 0.000000 0.000000 -0.000000 0.465758 90.393400 -1.780380 89.479700 -3.761780 7.034910 15.735700 0.000005 -0.000001 91.437000 85.026700 -91.220100 8.984550 -0.406207 -0.000000 2.176960 0.238676 0.428759 16.377300 -0.000001 -0.000001 5.679610 -2.574590 1.236410 6.456720 -0.000001 -0.000000 -0.230325 -2.445060 1.076560 12.994200 -0.242716 4.980390 -88.132600 -6.149970 -73.073700 5.348090 -0.000007 -0.000001 -39.838300 -16.386800 -68.487900 24.328600 0.000019 0.000005 23.491800 17.781200 -54.906000 22.291600 -0.000001 0.000005 21.818900 5.322790 -0.586972 12.994500 -0.242716 -4.980390 90.467000 -2.602140 -79.823100 -5.348130 -0.000001 -0.000004 -40.645900 -17.304800 -71.415900 -24.328900 0.000322 -0.000009 11.119800 8.890140 -51.810900 -22.291500 -0.000108 -0.000004 24.425200 5.609120 -11.876900 -2.192480 -6.469440 -0.000000 -176.330000 -11.966000 -5.604050 39.081100 -0.000007 -0.000012 -0.202978 0.304965 33.647200 40.985400 -0.000006 -0.000013 0.260272 2.491450 -70.941500 11.754300 -0.000000 0.000003 -0.000149 -0.001445 -16.632500 -2.192510 6.469440 -0.000001 175.906000 16.653300 175.157000 -39.081100 -0.002282 -0.040193 0.032407 -0.043153 34.006800 -40.985400 0.000008 0.000006 6.252290 9.667340 -71.724600 -11.754300 -0.000006 -0.000006 -0.221157 -0.280781 -17.453400
0.000000 0.000000 0.000000 0.000000 0.000000 -0.000000 0.498424 90.972600 -2.012450 89.280300 -3.538720 4.653420 15.735700 0.000005 -0.000001 93.223500 85.704600 -92.938700 8.984550 -0.406207 -0.000000 0.810125 0.465604 0.565847 16.377300 -0.000001 -0.000001 3.924620 -2.602440 1.280520 6.456720 -0.000001 -0.000000 -0.751807 -2.228060 1.183650 12.994200 -0.242716 4.980390 -87.298300 -8.358120 -72.015300 5.348090 -0.000007 -0.000001 -45.752100 -31.487900 -81.561600 24.328600 0.000019 0.000005 25.452700 16.417500 -59.297700 22.291600 -0.000001 0.000005 30.485100 5.309660 -0.190232 12.994500 -0.242716 -4.980390 91.205800 -5.787260 -78.213800 -5.348130 -0.000001 -0.000004 -49.353000 -31.791800 -87.733500 -24.328900 0.000322 -0.000009 12.755300 8.674810 -56.328300 -22.291500 -0.000108 -0.000004 30.538900 5.637190 -13.851800 -2.192480 -6.469440 -0.000000 -176.879000 -10.974600 -6.993290 39.081100 -0.000007 -0.000012 -0.176370 0.293867 30.971200 40.985400 -0.000006 -0.000013 0.036651 1.677090 -69.351400 11.754300 -0.000000 0.000003 -0.000153 -0.001477 -16.633700 -2.192510 6.469440 -0.000001 176.927000 16.784000 174.052000 -39.081100 -0.002282 -0.040193 0.030398 -0.045280 30.898400 -40.985400 0.000008 0.000006 6.071260 9.549340 -70.246200 -11.754300 -0.000006 -0.000006 -0.040977 -0.065286 -17.322100
0.000000 0.000000 0.000000 0.000000 0.000000 -0.000000 0.369069 91.468700 -1.870350 89.200300 -2.558390 2.372050 15.735700 0.000005 -0.000001 91.993600 86.727200 -91.796100 8.984550 -0.406207 -0.000000 -1.224780 0.212169 0.397134 16.377300 -0.000001 -0.000001 3.554130 -2.903410 1.900530 6.456720 -0.000001 -0.000000 -0.021255 -2.264670 1.286630 12.994200 -0.242716 4.980390 -86.127500 -10.832000 -70.192300 5.348090 -0.000007 -0.000001 -54.432200 -39.427000 -95.778300 24.328600 0.000019 0.000005 24.464900 17.305300 -56.824300 22.291600 -0.000001 0.000005 34.730100 5.338580 -1.037510 12.994500 -0.242716 -4.980390 92.347900 -8.995160 -75.308300 -5.348130 -0.000001 -0.000004 -63.096300 -36.951700 -105.091000 -24.328900 0.000322 -0.000009 12.308500 9.418280 -53.135200 -22.291500 -0.000108 -0.000004 29.186100 5.639840 -14.088800 -2.192480 -6.469440 -0.000000 -177.133000 -10.681000 -8.012320 39.081100 -0.000007 -0.000012 -0.155375 0.288806 28.280000 40.985400 -0.000006 -0.000013 0.057788 2.338020 -67.977600 11.754300 -0.000000 0.000003 -0.000171 -0.001626 -16.639200 -2.192510 6.469440 -0.000001 177.704000 17.933800 173.290000 -39.081100 -0.002282 -0.040193 0.028566 -0.047385 28.060900 -40.985400 0.000008 0.000006 6.068300 9.731100 -68.993600 -11.754300 -0.000006 -0.000006 -0.007013 -0.026444 -17.376000
